<svg xmlns="http://www.w3.org/2000/svg" viewBox="0 0 720 200" font-family="Inter, ui-sans-serif, system-ui, sans-serif">
  <defs>
    <marker id="a2a-arr" markerWidth="8" markerHeight="6" refX="7" refY="3" orient="auto">
      <path d="M0,0 L0,6 L8,3 z" fill="#475569"/>
    </marker>
    <marker id="a2a-arr-v" markerWidth="8" markerHeight="6" refX="7" refY="3" orient="auto">
      <path d="M0,0 L0,6 L8,3 z" fill="#7C3AED"/>
    </marker>
  </defs>

  <rect width="720" height="200" fill="#F8FAFC" rx="8"/>

  <!-- A2A Agent -->
  <rect x="20" y="80" width="110" height="44" rx="6" fill="#0D9488" stroke="#0F766E" stroke-width="1.5"/>
  <text x="75" y="98" fill="white" font-size="10" font-weight="700" text-anchor="middle">A2A Agent</text>
  <text x="75" y="114" fill="#CCFBF1" font-size="8" text-anchor="middle">POST /a2a/message:send</text>

  <!-- A2AChannelBackend -->
  <rect x="160" y="80" width="130" height="44" rx="6" fill="#134E4A" stroke="#0D9488" stroke-width="1.5"/>
  <text x="225" y="98" fill="white" font-size="10" font-weight="700" text-anchor="middle">A2AChannelBackend</text>
  <text x="225" y="114" fill="#CCFBF1" font-size="8" text-anchor="middle">protocol bridge · actor resolution</text>

  <!-- QhorusMcpTools -->
  <rect x="320" y="80" width="130" height="44" rx="6" fill="#1E293B" stroke="#334155" stroke-width="1.5"/>
  <text x="385" y="98" fill="white" font-size="10" font-weight="700" text-anchor="middle">QhorusMcpTools</text>
  <text x="385" y="114" fill="#94A3B8" font-size="8" text-anchor="middle">sendMessage()</text>

  <!-- MessageService -->
  <rect x="480" y="80" width="110" height="44" rx="6" fill="#1E293B" stroke="#334155" stroke-width="1.5"/>
  <text x="535" y="98" fill="white" font-size="10" font-weight="700" text-anchor="middle">MessageService</text>
  <text x="535" y="114" fill="#94A3B8" font-size="8" text-anchor="middle">persist · notify</text>

  <!-- Channel + Ledger -->
  <rect x="620" y="55" width="82" height="36" rx="6" fill="#312E81" stroke="#4338CA" stroke-width="1"/>
  <text x="661" y="70" fill="white" font-size="9" font-weight="600" text-anchor="middle">Channel</text>
  <text x="661" y="83" fill="#A5B4FC" font-size="8" text-anchor="middle">+ Ledger</text>

  <!-- Observer Notification -->
  <rect x="620" y="107" width="82" height="36" rx="6" fill="#5B21B6" stroke="#7C3AED" stroke-width="1"/>
  <text x="661" y="122" fill="white" font-size="9" font-weight="600" text-anchor="middle">Observer</text>
  <text x="661" y="135" fill="#DDD6FE" font-size="8" text-anchor="middle">Notification</text>

  <!-- Arrows -->
  <line x1="130" y1="102" x2="160" y2="102" stroke="#475569" stroke-width="1.5" marker-end="url(#a2a-arr)"/>
  <text x="144" y="94" fill="#0D9488" font-size="8" text-anchor="middle">HTTP</text>

  <line x1="290" y1="102" x2="320" y2="102" stroke="#475569" stroke-width="1.5" marker-end="url(#a2a-arr)"/>
  <line x1="450" y1="102" x2="480" y2="102" stroke="#475569" stroke-width="1.5" marker-end="url(#a2a-arr)"/>
  <line x1="590" y1="90" x2="620" y2="75" stroke="#475569" stroke-width="1.5" marker-end="url(#a2a-arr)"/>
  <line x1="590" y1="112" x2="620" y2="120" stroke="#7C3AED" stroke-width="1.5" marker-end="url(#a2a-arr-v)"/>
</svg>
