<svg xmlns="http://www.w3.org/2000/svg" viewBox="0 0 760 420" font-family="Inter, ui-sans-serif, system-ui, sans-serif">
  <defs>
    <marker id="t1-arr" markerWidth="8" markerHeight="6" refX="7" refY="3" orient="auto">
      <path d="M0,0 L0,6 L8,3 z" fill="#64748B"/>
    </marker>
    <marker id="t1-arr-purple" markerWidth="8" markerHeight="6" refX="7" refY="3" orient="auto">
      <path d="M0,0 L0,6 L8,3 z" fill="#7C3AED"/>
    </marker>
    <marker id="t1-arr-green" markerWidth="8" markerHeight="6" refX="7" refY="3" orient="auto">
      <path d="M0,0 L0,6 L8,3 z" fill="#16A34A"/>
    </marker>
    <marker id="t1-arr-orange" markerWidth="8" markerHeight="6" refX="7" refY="3" orient="auto">
      <path d="M0,0 L0,6 L8,3 z" fill="#EA580C"/>
    </marker>
    <marker id="t1-arr-teal" markerWidth="8" markerHeight="6" refX="7" refY="3" orient="auto">
      <path d="M0,0 L0,6 L8,3 z" fill="#0D9488"/>
    </marker>
    <marker id="t1-arr-pink" markerWidth="8" markerHeight="6" refX="7" refY="3" orient="auto">
      <path d="M0,0 L0,6 L8,3 z" fill="#DB2777"/>
    </marker>
    <marker id="t1-arr-blue" markerWidth="8" markerHeight="6" refX="7" refY="3" orient="auto">
      <path d="M0,0 L0,6 L8,3 z" fill="#0369A1"/>
    </marker>
  </defs>

  <!-- Background -->
  <rect width="760" height="420" fill="#F8FAFC" rx="8"/>

  <!-- Zone: WAN -->
  <ellipse cx="380" cy="210" rx="355" ry="195" fill="#FEF9C3" stroke="#FDE047" stroke-width="1.5" stroke-dasharray="6,4" opacity="0.7"/>

  <!-- Zone: LAN -->
  <ellipse cx="380" cy="210" rx="265" ry="145" fill="#DCFCE7" stroke="#4ADE80" stroke-width="1.5" stroke-dasharray="6,4" opacity="0.6"/>

  <!-- Zone: Machine -->
  <ellipse cx="380" cy="210" rx="178" ry="98" fill="#DBEAFE" stroke="#60A5FA" stroke-width="1.5" stroke-dasharray="6,4" opacity="0.6"/>

  <!-- Zone: JVM -->
  <ellipse cx="380" cy="210" rx="90" ry="52" fill="#EDE9FE" stroke="#A78BFA" stroke-width="1.5" opacity="0.7"/>

  <!-- Zone labels -->
  <text x="726" y="50" fill="#713F12" font-size="11" font-weight="600">WAN</text>
  <text x="638" y="90" fill="#14532D" font-size="11" font-weight="600">LAN</text>
  <text x="549" y="130" fill="#1E3A8A" font-size="11" font-weight="600">Machine</text>
  <text x="400" y="167" fill="#4C1D95" font-size="11" font-weight="600" text-anchor="middle">JVM</text>

  <!-- Qhorus center -->
  <rect x="322" y="188" width="116" height="44" rx="8" fill="#2563EB" stroke="#1D4ED8" stroke-width="2"/>
  <text x="380" y="206" fill="white" font-size="13" font-weight="700" text-anchor="middle">qhorus</text>
  <text x="380" y="222" fill="#BFDBFE" font-size="9" text-anchor="middle">channel mesh</text>

  <!-- Harness — same JVM -->
  <rect x="200" y="190" width="106" height="40" rx="6" fill="#6D28D9" stroke="#5B21B6" stroke-width="1.5"/>
  <text x="253" y="207" fill="white" font-size="11" font-weight="600" text-anchor="middle">Harness</text>
  <text x="253" y="221" fill="#DDD6FE" font-size="9" text-anchor="middle">same JVM</text>
  <line x1="306" y1="210" x2="322" y2="210" stroke="#7C3AED" stroke-width="2" marker-end="url(#t1-arr-purple)"/>
  <rect x="302" y="196" width="16" height="12" rx="2" fill="#EDE9FE"/>
  <text x="310" y="206" fill="#5B21B6" font-size="8" text-anchor="middle">CDI</text>

  <!-- Agent / Worker — same machine -->
  <rect x="430" y="120" width="126" height="40" rx="6" fill="#15803D" stroke="#166534" stroke-width="1.5"/>
  <text x="493" y="137" fill="white" font-size="11" font-weight="600" text-anchor="middle">Agent / Worker</text>
  <text x="493" y="151" fill="#BBF7D0" font-size="9" text-anchor="middle">same machine</text>
  <line x1="438" y1="145" x2="415" y2="200" stroke="#16A34A" stroke-width="2" marker-end="url(#t1-arr-green)"/>
  <rect x="411" y="158" width="30" height="12" rx="2" fill="#DCFCE7"/>
  <text x="426" y="168" fill="#14532D" font-size="8" text-anchor="middle">IPC</text>

  <!-- Claudony terminal — LAN -->
  <rect x="530" y="220" width="140" height="40" rx="6" fill="#EA580C" stroke="#C2410C" stroke-width="1.5"/>
  <text x="600" y="237" fill="white" font-size="11" font-weight="600" text-anchor="middle">Claudony Terminal</text>
  <text x="600" y="251" fill="#FED7AA" font-size="9" text-anchor="middle">LAN</text>
  <line x1="530" y1="238" x2="438" y2="222" stroke="#EA580C" stroke-width="2" marker-end="url(#t1-arr-orange)"/>
  <rect x="459" y="222" width="46" height="12" rx="2" fill="#FFF7ED"/>
  <text x="482" y="232" fill="#9A3412" font-size="8" text-anchor="middle">TCP / WS</text>

  <!-- A2A external — WAN -->
  <rect x="88" y="90" width="140" height="40" rx="6" fill="#0D9488" stroke="#0F766E" stroke-width="1.5"/>
  <text x="158" y="107" fill="white" font-size="11" font-weight="600" text-anchor="middle">A2A Agent</text>
  <text x="158" y="121" fill="#CCFBF1" font-size="9" text-anchor="middle">internet / WAN</text>
  <line x1="228" y1="113" x2="348" y2="195" stroke="#0D9488" stroke-width="2" marker-end="url(#t1-arr-teal)"/>
  <rect x="256" y="137" width="58" height="12" rx="2" fill="#F0FDFA"/>
  <text x="285" y="147" fill="#0F766E" font-size="8" text-anchor="middle">A2A / HTTP</text>

  <!-- Human via backend — WAN -->
  <rect x="530" y="330" width="140" height="40" rx="6" fill="#DB2777" stroke="#BE185D" stroke-width="1.5"/>
  <text x="600" y="347" fill="white" font-size="11" font-weight="600" text-anchor="middle">Human (PI)</text>
  <text x="600" y="361" fill="#FBCFE8" font-size="9" text-anchor="middle">WhatsApp / form / WAN</text>
  <line x1="540" y1="330" x2="430" y2="232" stroke="#DB2777" stroke-width="2" marker-end="url(#t1-arr-pink)"/>
  <rect x="457" y="274" width="76" height="12" rx="2" fill="#FDF2F8"/>
  <text x="495" y="284" fill="#9D174D" font-size="8" text-anchor="middle">HumanBackend</text>

  <!-- LLM Worker — LAN -->
  <rect x="80" y="280" width="140" height="40" rx="6" fill="#0369A1" stroke="#075985" stroke-width="1.5"/>
  <text x="150" y="297" fill="white" font-size="11" font-weight="600" text-anchor="middle">LLM Worker</text>
  <text x="150" y="311" fill="#BAE6FD" font-size="9" text-anchor="middle">LAN / cloud</text>
  <line x1="220" y1="300" x2="340" y2="225" stroke="#0369A1" stroke-width="2" marker-end="url(#t1-arr-blue)"/>
  <rect x="245" y="254" width="56" height="12" rx="2" fill="#F0F9FF"/>
  <text x="273" y="264" fill="#075985" font-size="8" text-anchor="middle">MCP / REST</text>
</svg>
