<svg xmlns="http://www.w3.org/2000/svg" viewBox="0 0 720 320" font-family="Inter, ui-sans-serif, system-ui, sans-serif">
  <defs>
    <marker id="sc-arr-v" markerWidth="8" markerHeight="6" refX="7" refY="3" orient="auto">
      <path d="M0,0 L0,6 L8,3 z" fill="#7C3AED"/>
    </marker>
    <marker id="sc-arr-o" markerWidth="8" markerHeight="6" refX="7" refY="3" orient="auto">
      <path d="M0,0 L0,6 L8,3 z" fill="#EA580C"/>
    </marker>
  </defs>

  <rect width="720" height="320" fill="#F8FAFC" rx="8"/>

  <!-- SPI centre -->
  <rect x="260" y="20" width="200" height="50" rx="8" fill="#1E293B" stroke="#334155" stroke-width="1.5"/>
  <text x="360" y="42" fill="white" font-size="13" font-weight="700" text-anchor="middle">MessageObserver SPI</text>
  <text x="360" y="58" fill="#94A3B8" font-size="10" text-anchor="middle">casehub-qhorus-api</text>

  <!-- LOCAL side -->
  <rect x="20" y="110" width="300" height="44" rx="8" fill="#EDE9FE" stroke="#7C3AED" stroke-width="2"/>
  <text x="170" y="128" fill="#4C1D95" font-size="11" font-weight="700" text-anchor="middle">InProcessMessageBus</text>
  <text x="170" y="146" fill="#6D28D9" font-size="9" text-anchor="middle">Scope.LOCAL · @DefaultBean · zero overhead</text>

  <line x1="280" y1="70" x2="220" y2="110" stroke="#7C3AED" stroke-width="2" marker-end="url(#sc-arr-v)"/>

  <!-- LOCAL downstream -->
  <rect x="20" y="194" width="300" height="36" rx="6" fill="#F5F3FF" stroke="#A78BFA" stroke-width="1"/>
  <text x="170" y="209" fill="#5B21B6" font-size="10" font-weight="600" text-anchor="middle">CDI Event&lt;MessageReceivedEvent&gt;</text>
  <text x="170" y="223" fill="#7C3AED" font-size="9" text-anchor="middle">@ObservesAsync in clinical / aml / devtown</text>

  <line x1="170" y1="154" x2="170" y2="194" stroke="#7C3AED" stroke-width="1.5" marker-end="url(#sc-arr-v)"/>

  <!-- CLUSTER side -->
  <rect x="400" y="110" width="300" height="44" rx="8" fill="#FFF7ED" stroke="#EA580C" stroke-width="2" stroke-dasharray="6,3"/>
  <text x="550" y="128" fill="#9A3412" font-size="11" font-weight="700" text-anchor="middle">Network Transport Impls</text>
  <text x="550" y="146" fill="#C2410C" font-size="9" text-anchor="middle">Scope.CLUSTER · casehub-connectors or host app</text>

  <line x1="440" y1="70" x2="500" y2="110" stroke="#EA580C" stroke-width="2" stroke-dasharray="4,2" marker-end="url(#sc-arr-o)"/>

  <!-- CLUSTER implementations -->
  <rect x="400" y="194" width="84" height="50" rx="6" fill="#FEF3C7" stroke="#FCD34D" stroke-width="1" stroke-dasharray="4,3"/>
  <text x="442" y="213" fill="#92400E" font-size="9" font-weight="600" text-anchor="middle">Kafka</text>
  <text x="442" y="225" fill="#B45309" font-size="8" text-anchor="middle">MessageBus</text>
  <text x="442" y="237" fill="#D97706" font-size="8" text-anchor="middle">durable log</text>

  <rect x="500" y="194" width="84" height="50" rx="6" fill="#FEF3C7" stroke="#FCD34D" stroke-width="1" stroke-dasharray="4,3"/>
  <text x="542" y="213" fill="#92400E" font-size="9" font-weight="600" text-anchor="middle">WebSocket</text>
  <text x="542" y="225" fill="#B45309" font-size="8" text-anchor="middle">MessageBus</text>
  <text x="542" y="237" fill="#D97706" font-size="8" text-anchor="middle">real-time push</text>

  <rect x="600" y="194" width="84" height="50" rx="6" fill="#FEF3C7" stroke="#FCD34D" stroke-width="1" stroke-dasharray="4,3"/>
  <text x="642" y="213" fill="#92400E" font-size="9" font-weight="600" text-anchor="middle">Webhook</text>
  <text x="642" y="225" fill="#B45309" font-size="8" text-anchor="middle">MessageBus</text>
  <text x="642" y="237" fill="#D97706" font-size="8" text-anchor="middle">HTTP callback</text>

  <line x1="480" y1="154" x2="442" y2="194" stroke="#EA580C" stroke-width="1" stroke-dasharray="4,2" marker-end="url(#sc-arr-o)"/>
  <line x1="545" y1="154" x2="542" y2="194" stroke="#EA580C" stroke-width="1" stroke-dasharray="4,2" marker-end="url(#sc-arr-o)"/>
  <line x1="590" y1="154" x2="642" y2="194" stroke="#EA580C" stroke-width="1" stroke-dasharray="4,2" marker-end="url(#sc-arr-o)"/>

  <!-- Footer labels -->
  <text x="170" y="268" fill="#64748B" font-size="9" text-anchor="middle">Ships in #153 (today)</text>
  <text x="550" y="268" fill="#94A3B8" font-size="9" text-anchor="middle">Future — casehub-connectors / SmallRye</text>

  <!-- Divider -->
  <line x1="370" y1="100" x2="370" y2="290" stroke="#E2E8F0" stroke-width="1" stroke-dasharray="4,3"/>
</svg>
