<svg xmlns="http://www.w3.org/2000/svg" viewBox="0 0 720 380" font-family="Inter, ui-sans-serif, system-ui, sans-serif">
  <defs>
    <marker id="p2-arr" markerWidth="8" markerHeight="6" refX="7" refY="3" orient="auto">
      <path d="M0,0 L0,6 L8,3 z" fill="#475569"/>
    </marker>
    <marker id="p2-arr-blue" markerWidth="8" markerHeight="6" refX="7" refY="3" orient="auto">
      <path d="M0,0 L0,6 L8,3 z" fill="#2563EB"/>
    </marker>
    <marker id="p2-arr-violet" markerWidth="8" markerHeight="6" refX="7" refY="3" orient="auto">
      <path d="M0,0 L0,6 L8,3 z" fill="#7C3AED"/>
    </marker>
  </defs>

  <rect width="720" height="380" fill="#F8FAFC" rx="8"/>

  <!-- MessageService.send() -->
  <rect x="240" y="20" width="240" height="50" rx="8" fill="#1E293B" stroke="#334155" stroke-width="1.5"/>
  <text x="360" y="42" fill="white" font-size="13" font-weight="700" text-anchor="middle">MessageService.send()</text>
  <text x="360" y="58" fill="#94A3B8" font-size="10" text-anchor="middle">persist · all 9 message types</text>

  <!-- Branch lines -->
  <line x1="300" y1="70" x2="180" y2="130" stroke="#475569" stroke-width="1.5" stroke-dasharray="4,3"/>
  <line x1="420" y1="70" x2="540" y2="130" stroke="#475569" stroke-width="1.5" stroke-dasharray="4,3"/>

  <!-- Path 1: ChannelBackend Fan-Out -->
  <rect x="60" y="130" width="240" height="60" rx="8" fill="#EFF6FF" stroke="#2563EB" stroke-width="2"/>
  <text x="180" y="152" fill="#1D4ED8" font-size="12" font-weight="700" text-anchor="middle">ChannelBackend Fan-Out</text>
  <text x="180" y="168" fill="#3B82F6" font-size="9" text-anchor="middle">Per-channel · targeted · registered backends</text>
  <text x="180" y="180" fill="#93C5FD" font-size="9" text-anchor="middle">fanOut() via virtual threads · non-fatal</text>

  <!-- Path 1 implementations -->
  <rect x="24" y="226" width="100" height="36" rx="6" fill="#DBEAFE" stroke="#93C5FD" stroke-width="1"/>
  <text x="74" y="241" fill="#1E40AF" font-size="9" font-weight="600" text-anchor="middle">Claudony</text>
  <text x="74" y="254" fill="#3B82F6" font-size="8" text-anchor="middle">ClaudonyBackend</text>

  <rect x="138" y="226" width="100" height="36" rx="6" fill="#DBEAFE" stroke="#93C5FD" stroke-width="1"/>
  <text x="188" y="241" fill="#1E40AF" font-size="9" font-weight="600" text-anchor="middle">Slack / WhatsApp</text>
  <text x="188" y="254" fill="#3B82F6" font-size="8" text-anchor="middle">ConnectorBackend</text>

  <rect x="38" y="280" width="224" height="36" rx="6" fill="#EFF6FF" stroke="#93C5FD" stroke-width="1" stroke-dasharray="4,3"/>
  <text x="150" y="298" fill="#93C5FD" font-size="9" font-weight="600" text-anchor="middle">future backends</text>
  <text x="150" y="309" fill="#BFDBFE" font-size="8" text-anchor="middle">any ChannelBackend impl</text>

  <line x1="100" y1="190" x2="74" y2="226" stroke="#2563EB" stroke-width="1.5" marker-end="url(#p2-arr-blue)"/>
  <line x1="160" y1="190" x2="188" y2="226" stroke="#2563EB" stroke-width="1.5" marker-end="url(#p2-arr-blue)"/>
  <line x1="130" y1="190" x2="150" y2="280" stroke="#93C5FD" stroke-width="1" stroke-dasharray="4,3"/>

  <!-- Path 2: MessageObserver -->
  <rect x="420" y="130" width="240" height="60" rx="8" fill="#F5F3FF" stroke="#7C3AED" stroke-width="2"/>
  <text x="540" y="152" fill="#5B21B6" font-size="12" font-weight="700" text-anchor="middle">MessageObserver</text>
  <text x="540" y="168" fill="#7C3AED" font-size="9" text-anchor="middle">Global · all messages · SPI · pluggable transport</text>
  <text x="540" y="180" fill="#A78BFA" font-size="9" text-anchor="middle">Instance&lt;MessageObserver&gt; iteration</text>

  <!-- Path 2 implementations -->
  <rect x="424" y="226" width="110" height="36" rx="6" fill="#EDE9FE" stroke="#A78BFA" stroke-width="1"/>
  <text x="479" y="241" fill="#4C1D95" font-size="9" font-weight="600" text-anchor="middle">InProcessMessageBus</text>
  <text x="479" y="254" fill="#7C3AED" font-size="8" text-anchor="middle">CDI · LOCAL scope</text>

  <rect x="546" y="226" width="110" height="36" rx="6" fill="#EDE9FE" stroke="#A78BFA" stroke-width="1" stroke-dasharray="4,3"/>
  <text x="601" y="241" fill="#A78BFA" font-size="9" font-weight="600" text-anchor="middle">KafkaMessageBus</text>
  <text x="601" y="254" fill="#C4B5FD" font-size="8" text-anchor="middle">Kafka · CLUSTER scope</text>

  <rect x="438" y="280" width="224" height="36" rx="6" fill="#F5F3FF" stroke="#A78BFA" stroke-width="1" stroke-dasharray="4,3"/>
  <text x="550" y="298" fill="#A78BFA" font-size="9" font-weight="600" text-anchor="middle">WebSocketMessageBus · WebhookMessageBus</text>
  <text x="550" y="309" fill="#C4B5FD" font-size="8" text-anchor="middle">future · CLUSTER scope</text>

  <line x1="500" y1="190" x2="479" y2="226" stroke="#7C3AED" stroke-width="1.5" marker-end="url(#p2-arr-violet)"/>
  <line x1="560" y1="190" x2="601" y2="226" stroke="#A78BFA" stroke-width="1" stroke-dasharray="4,3"/>
  <line x1="540" y1="190" x2="550" y2="280" stroke="#A78BFA" stroke-width="1" stroke-dasharray="4,3"/>

  <!-- Footer labels -->
  <rect x="50" y="334" width="280" height="30" rx="4" fill="#F1F5F9"/>
  <text x="190" y="353" fill="#475569" font-size="9" text-anchor="middle">per-channel · requires registration · targeted push</text>

  <rect x="390" y="334" width="280" height="30" rx="4" fill="#F1F5F9"/>
  <text x="530" y="353" fill="#475569" font-size="9" text-anchor="middle">global · all channels · all messages · observer filters</text>
</svg>
